<svg xmlns="http://www.w3.org/2000/svg" width="512" height="512" viewBox="0 0 512 512">
  <defs>
    <linearGradient id="a" x1="50%" x2="50%" y1="100%" y2="0%">
      <stop stop-color="#D84A2E" offset="0%"/>
      <stop stop-color="#FF6633" offset="100%"/>
    </linearGradient>
  </defs>
  <g fill="none" fill-rule="evenodd">
    <circle cx="256" cy="256" r="256" fill="#EC5931"/>
    <circle cx="256" cy="256" r="256" fill="url(#a)"/>
    <g fill-rule="nonzero" transform="translate(119 139)">
      <path fill="#FFFFFF" d="M275,218.396739 C275,227.592391 267.615741,235 258.703704,235 L16.2962963,235 C7.38425926,235 0,227.592391 0,218.396739 L0,16.6032609 C0,7.4076087 7.38425926,0 16.2962963,0 L258.703704,0 C267.615741,0 275,7.4076087 275,16.6032609 L275,218.396739 Z"/>
      <path fill="#EC5931" d="M48.4967641 201C39.2173343 201 32 193.627119 32 184.474576L32 52.5254237C32 43.3728814 39.4750962 36 48.4967641 36 57.518432 36 64.9935282 43.3728814 64.9935282 52.5254237L64.9935282 184.474576C65.2512902 193.627119 57.7761939 201 48.4967641 201zM193.954669 116.407705L241.948598 61.5155952C247.820195 54.6540815 247.309622 44.2347458 240.416877 38.1356225 233.524132 32.0364992 223.312657 32.7988896 217.185773 39.6604033L172 91.5029515 126.814227 39.6604033C120.942629 32.7988896 110.475868 32.0364992 103.583123 38.1356225 96.6903784 44.2347458 96.1798047 54.6540815 102.051402 61.5155952L150.045331 116.661835 102.051402 171.553945C96.1798047 178.415459 96.6903784 188.834794 103.583123 194.933918 106.646566 197.729349 110.475868 199 114.305171 199 118.900335 199 123.495498 197.221089 126.814227 193.409137L172 141.566589 217.185773 193.409137C220.504502 197.221089 225.099665 199 229.694829 199 233.524132 199 237.353434 197.729349 240.416877 194.933918 247.309622 188.834794 247.820195 178.415459 241.948598 171.553945L193.954669 116.407705z"/>
    </g>
  </g>
</svg>
